<?xml version="1.0" encoding="UTF-8"?>
<svg xmlns="http://www.w3.org/2000/svg" xmlns:xlink="http://www.w3.org/1999/xlink" viewBox="646 0 455 401.33">
  <defs>
    <style>
      .cls-1, .cls-2 {
        fill: #fff;
      }

      .cls-3 {
        fill: #f7941d;
      }

      .cls-4 {
        fill: url(#linear-gradient-2);
      }

      .cls-4, .cls-5, .cls-6, .cls-7, .cls-8 {
        mix-blend-mode: screen;
      }

      .cls-9 {
        fill: url(#radial-gradient);
      }

      .cls-10 {
        fill: url(#radial-gradient-3);
      }

      .cls-5 {
        fill: url(#linear-gradient-6);
        opacity: .29;
      }

      .cls-11 {
        letter-spacing: -.02em;
      }

      .cls-6 {
        fill: url(#linear-gradient-4);
      }

      .cls-12 {
        isolation: isolate;
      }

      .cls-13 {
        fill: url(#radial-gradient-2);
      }

      .cls-14 {
        letter-spacing: -.03em;
      }

      .cls-15 {
        letter-spacing: -.08em;
      }

      .cls-2 {
        font-family: MyriadPro-Bold, 'Myriad Pro';
        font-size: 18px;
        font-weight: 700;
      }

      .cls-16 {
        letter-spacing: 0em;
      }

      .cls-7 {
        fill: url(#linear-gradient-3);
        opacity: .7;
      }

      .cls-17 {
        letter-spacing: 0em;
      }

      .cls-18 {
        letter-spacing: 0em;
      }

      .cls-19 {
        fill: url(#linear-gradient);
      }

      .cls-20 {
        letter-spacing: -.07em;
      }

      .cls-8 {
        fill: url(#linear-gradient-5);
      }
    </style>
    <radialGradient id="radial-gradient" cx="875.64" cy="117.16" fx="875.64" fy="117.16" r="67.53" gradientUnits="userSpaceOnUse">
      <stop offset="0" stop-color="#44c8f5"/>
      <stop offset=".25" stop-color="#00aeef"/>
      <stop offset=".56" stop-color="#0090d6"/>
      <stop offset=".75" stop-color="#0062af"/>
      <stop offset=".88" stop-color="#2e3192"/>
      <stop offset="1" stop-color="#009ee2"/>
    </radialGradient>
    <radialGradient id="radial-gradient-2" cx="838" cy="155.59" fx="838" fy="155.59" r="18.94" gradientTransform="translate(-657.75 -161.04) scale(1.83)" gradientUnits="userSpaceOnUse">
      <stop offset=".53" stop-color="#00904c"/>
      <stop offset=".81" stop-color="#008b4c"/>
      <stop offset="1" stop-color="#80c342"/>
    </radialGradient>
    <radialGradient id="radial-gradient-3" cx="843.17" cy="146.11" fx="843.17" fy="146.11" r="26.83" gradientTransform="translate(-657.75 -161.04) scale(1.83)" gradientUnits="userSpaceOnUse">
      <stop offset=".66" stop-color="#8cc4eb"/>
      <stop offset=".7" stop-color="#85c1ea"/>
      <stop offset=".76" stop-color="#72bbe7"/>
      <stop offset=".82" stop-color="#53b2e3"/>
      <stop offset=".85" stop-color="#44ade2"/>
      <stop offset="1" stop-color="#0b8bcc"/>
    </radialGradient>
    <linearGradient id="linear-gradient" x1="791.21" y1="93.97" x2="956.1" y2="93.97" gradientUnits="userSpaceOnUse">
      <stop offset="0" stop-color="#f58220"/>
      <stop offset=".23" stop-color="#f7941d"/>
      <stop offset=".52" stop-color="#ffd200"/>
      <stop offset=".8" stop-color="#f7941d"/>
      <stop offset="1" stop-color="#f58220"/>
    </linearGradient>
    <linearGradient id="linear-gradient-2" x1="1037.48" y1="107.45" x2="1035.75" y2="119.93" gradientTransform="translate(-1042.83 -362.35) rotate(9.58) scale(1.89 1)" gradientUnits="userSpaceOnUse">
      <stop offset="0" stop-color="#fff"/>
      <stop offset="1" stop-color="#000"/>
    </linearGradient>
    <linearGradient id="linear-gradient-3" x1="872.54" y1="117.01" x2="914.02" y2="121.87" gradientTransform="matrix(1,0,0,1,0,0)" xlink:href="#linear-gradient-2"/>
    <linearGradient id="linear-gradient-4" x1="884.18" y1="87.88" x2="884.18" y2="95.4" gradientTransform="matrix(1,0,0,1,0,0)" xlink:href="#linear-gradient-2"/>
    <linearGradient id="linear-gradient-5" x1="874.78" y1="26.44" x2="874.78" y2="57.31" gradientUnits="userSpaceOnUse">
      <stop offset="0" stop-color="#fff"/>
      <stop offset=".1" stop-color="#d0d0d0"/>
      <stop offset=".23" stop-color="#999"/>
      <stop offset=".37" stop-color="#6a6a6a"/>
      <stop offset=".5" stop-color="#444"/>
      <stop offset=".63" stop-color="#262626"/>
      <stop offset=".76" stop-color="#111"/>
      <stop offset=".88" stop-color="#040404"/>
      <stop offset="1" stop-color="#000"/>
    </linearGradient>
    <linearGradient id="linear-gradient-6" x1="854.24" y1="159.56" x2="865.82" y2="139.29" gradientTransform="matrix(1,0,0,1,0,0)" xlink:href="#linear-gradient-2"/>
  </defs>
  <g class="cls-12">
    <g id="Layer_1" data-name="Layer 1">
      <g>
        <g>
          <path class="cls-9" d="M930.93,87.4s-.51,5.27-1.09,11.82c-.49,5.57-8.08,35.21-14.88,47.71-11.51,10.55-27.4,16.84-44.75,13.33-22.85-4.63-33.81-22.32-35.32-37.28-1.49-14.87,6.15-28.92,14.68-35.62,25.11-19.73,49.64-1.25,49.64-1.25,0,0-11.63-20.62-40.75-16.77-28.74,3.81-47.58,27.12-47.07,51.97.35,16.4,5.98,31.96,20.31,42.85,11.17,8.73,25.32,14.01,40.8,14.01,35.97,0,65.12-28.19,65.12-62.95,0-9.99-2.41-19.44-6.69-27.83Z"/>
          <path class="cls-13" d="M886.49,95.92c12.57,3.19,20.19,15.94,17.01,28.52-.74,2.94-2.02,5.59-3.68,7.92,4.18-3.33,7.35-8,8.76-13.6,3.44-13.61-4.8-27.43-18.41-30.86-13.61-3.44-27.43,4.81-30.87,18.42-.39,1.51-.6,3.04-.7,4.53,4-11.3,16.02-17.92,27.88-14.92Z"/>
          <path class="cls-10" d="M869.73,59.61c16.34-3.5,29.3.07,36,3.23,19.79,9.29,30.64,28.71,31.5,46.99.95,20.3-9.3,33.52-23.67,41.66-9.87,5.56-26.19,7.36-37.12,4.02-14.52-4.44-26.11-14.39-29.07-30.69-3.05-16.71,5.87-23.68,5.87-23.68,0,0-3.44,24.1,20.46,35.79,8.08,3.96,22.45,3.85,32.93-2.8,11.57-7.33,18.61-22.37,13.44-41.02-3.66-13.15-13.74-24.62-30.29-28.87-11.06-2.83-26.48-2.18-35.8,1.88,0,0,4.64-4.14,15.75-6.52Z"/>
          <path class="cls-19" d="M800.18,116.68c0-40.76,33.05-73.83,73.81-73.83s73.83,33.07,73.83,73.83c0,16.84-5.67,32.38-15.17,44.8,13.4-14.34,21.62-33.59,21.62-54.77,0-44.33-35.95-80.26-80.27-80.26s-80.26,35.92-80.26,80.26c0,21.18,8.21,40.43,21.6,54.77-9.5-12.42-15.16-27.96-15.16-44.8Z"/>
          <path class="cls-4" d="M851.6,83.35c2.28-1.32,5.06-2.1,7.53-3.02,22.47-8.38,38.15,3.79,38.15,3.79,0,0-10.17-14.57-32.68-14.33-10.22.12-18.93,3.76-23.74,5.91,2.57,2.61,6.02,5.39,10.74,7.65Z"/>
          <path class="cls-7" d="M921.34,98.36c4.06,12.75-2.11,34.92-23.37,41.01-18.72,5.37-37.9-5.06-41.95-17.81l.36,1.17c2.94,12.11,22.22,24.97,43.33,18.49,20.84-6.41,25.67-26.91,22-41.71l-.37-1.15Z"/>
          <path class="cls-6" d="M863.65,98.69c4.22-2.77,10.54-7.34,18.4-7.41,12.12-.11,18.28,4.74,22.66,8.14-4.25-7.21-11.86-11.71-21.35-11.54-8.65.15-16.2,4.84-19.72,10.81Z"/>
          <path class="cls-8" d="M874.13,37.81c25.24,0,47.57,10.35,60.56,29.91.17.17.34.35.5.5-2.22-22.59-28.61-40.41-60.86-40.41-29.82,0-54.64,15.22-59.96,35.37,3.74-3.24,7.49-6.39,11.41-9.33,12.85-11.54,29.73-16.04,48.35-16.04Z"/>
          <path class="cls-5" d="M916.9,143.52c-8.71,15.28-35.84,28.78-61.28,13.55-20.97-12.57-29.66-41.59-20.95-56.9l-.78,1.38c-8.68,14.41-4.63,43.76,21.52,58.85,25.31,14.61,49.63,1.23,60.68-15.5l.8-1.39Z"/>
        </g>
        <g>
          <polygon class="cls-3" points="789.51 79.94 773.66 70.09 792.12 72.8 789.51 79.94"/>
          <polygon class="cls-3" points="801.48 55.82 789.32 41.67 806.12 49.8 801.48 55.82"/>
          <polygon class="cls-3" points="820.14 36.41 812.79 19.27 826.38 32.07 820.14 36.41"/>
          <polygon class="cls-3" points="843.77 23.5 841.9 4.94 851.02 21.22 843.77 23.5"/>
          <polygon class="cls-3" points="870.18 18.27 873.97 0 877.78 18.27 870.18 18.27"/>
          <polygon class="cls-3" points="896.95 21.21 906.04 4.92 904.19 23.49 896.95 21.21"/>
          <polygon class="cls-3" points="921.59 32.04 935.15 19.23 927.82 36.4 921.59 32.04"/>
          <polygon class="cls-3" points="941.84 49.78 958.64 41.64 946.49 55.8 941.84 49.78"/>
          <polygon class="cls-3" points="955.85 72.78 974.31 70.05 958.47 79.91 955.85 72.78"/>
        </g>
      </g>
      <text class="cls-2" transform="translate(646.94 337.35)"><tspan x="0" y="0">CIVIL | INF</tspan><tspan class="cls-17" x="81.02" y="0">R</tspan><tspan x="91.85" y="0">A | INTERIOR FI</tspan><tspan class="cls-14" x="210.69" y="0">T</tspan><tspan class="cls-18" x="220.03" y="0">OUT | </tspan><tspan class="cls-16" x="267.44" y="0">M</tspan><tspan x="282.61" y="0">ARINE | </tspan><tspan class="cls-11" x="344.62" y="0">D</tspan><tspan class="cls-15" x="356.86" y="0">A</tspan><tspan class="cls-20" x="367.18" y="0">T</tspan><tspan x="375.74" y="0">A CENTRE</tspan></text>
      <g>
        <path class="cls-1" d="M693.45,252.83v-26.71c0-5.97,1.96-10.31,5.88-13.01,3.92-2.71,10.21-4.06,18.88-4.06h8.93c8.67,0,14.96,1.35,18.88,4.06,3.92,2.7,5.88,7.04,5.88,13.01v26.71c0,5.98-1.96,10.32-5.88,13.02-3.92,2.71-10.21,4.06-18.88,4.06h-8.93c-7.69,0-13.65-1.47-17.86-4.4-3.09-2.14-5.16-4.87-6.22-8.2-.23-1.46-.46-2.96-.68-4.49ZM714.72,261.09h15.93c3.54,0,5.98-.57,7.34-1.7,1.35-1.13,2.03-3.11,2.03-5.93v-27.8c0-2.89-.66-4.91-1.98-6.06-1.32-1.15-3.74-1.74-7.28-1.74h-16.04c-3.62,0-6.1.57-7.46,1.69-1.35,1.13-2.03,3.16-2.03,6.11v27.63c0,2.89.7,4.9,2.08,6.06,1.39,1.16,3.86,1.74,7.4,1.74Z"/>
        <path class="cls-1" d="M773.47,255.28v-31.27c0-4.62,1.79-8.27,5.37-10.95,3.58-2.68,8.04-4.01,13.39-4.01h34.23v8.81h-32.61c-5.73,0-8.59,2.14-8.59,6.41v31.58c1.05,3.5,3.86,5.25,8.4,5.25h32.58v8.81h-35.06c-3.4,0-6.8-.87-10.21-2.62-4-2.03-6.5-5.18-7.49-9.47v-2.54Z"/>
        <path class="cls-1" d="M845.69,253.59v-29.33c0-5.19,1.89-9.02,5.65-11.5,3.76-2.47,9.79-3.71,18.07-3.71h29.71v8.81h-34.5c-1.29,0-2.66.36-4.14,1.1-1.48.73-2.48,2.05-3.01,3.97v11.91h41.54v8.81h-41.54v11.93c0,.51.18,1.1.56,1.79,1.05,1.57,2.34,2.59,3.84,3.05,1.5.44,4.37.67,8.58.67h28.33v8.81h-31.52c-7.01,0-12.35-1.38-16.04-4.15-3.7-2.76-5.54-6.82-5.54-12.16Z"/>
        <path class="cls-1" d="M911,269.91l27.01-55.17c2.04-4.23,5.09-6.35,9.15-6.35,1.29,0,2.58.19,3.9.55,1.32.37,2.39.95,3.23,1.73.82.79,1.73,2.15,2.71,4.07l26.9,55.17-12.58.02-6.21-12.73h-35.28l-6.24,12.73-12.59-.02ZM960.81,248.38l-13.56-27.61-13.21,27.61h26.77Z"/>
        <path class="cls-1" d="M997.37,269.91v-52.29c0-6.02,3.24-9.04,9.71-9.04h1.69c.23,0,1.03.13,2.42.38,1.4.25,2.66.81,3.79,1.68,1.13.87,2.18,2.21,3.16,4.01l24.5,44.55v-50.13h11.87v53.53c0,2.14-.87,3.96-2.6,5.44-1.73,1.49-3.95,2.35-6.66,2.58-.3.06-.57.08-.79.08h-.79c-4.36,0-7.71-2.04-10.05-6.12l-24.48-43.81v49.12h-11.78Z"/>
      </g>
      <g>
        <path class="cls-1" d="M708.26,298.19c-1.88,2.25-4.33,3.38-7.36,3.38h-7.45v-22.36h7.45c3.01,0,5.45,1.12,7.33,3.38,1.77,2.11,2.66,4.69,2.66,7.77s-.88,5.7-2.63,7.83ZM707.32,283.48c-1.63-2.01-3.77-3.01-6.42-3.01h-6.2v19.83h6.2c2.3,0,4.29-.86,5.98-2.57,1.81-1.84,2.73-4.29,2.73-7.36,0-2.73-.76-5.03-2.29-6.89Z"/>
        <path class="cls-1" d="M719.57,301.58v-22.36h10.74v1.28h-9.46v8.14h9.46v1.38h-9.46v10.27h9.46v1.28h-10.74Z"/>
        <path class="cls-1" d="M739.25,301.58v-22.36h1.25v21.08h6.3v1.28h-7.54Z"/>
        <path class="cls-1" d="M756.04,301.58v-22.36h1.25v22.36h-1.25Z"/>
        <path class="cls-1" d="M772.82,301.96l-7.17-22.74h1.32l5.85,18.47,5.89-18.47h1.34l-7.23,22.74Z"/>
        <path class="cls-1" d="M789.46,301.58v-22.36h10.74v1.28h-9.46v8.14h9.46v1.38h-9.46v10.27h9.46v1.28h-10.74Z"/>
        <path class="cls-1" d="M819.9,301.58l-7.11-11.18h-2.41v11.18h-1.26v-22.36h5.17c.84,0,1.63.12,2.38.36.75.24,1.4.6,1.94,1.07.55.46.97,1.05,1.3,1.73.32.69.48,1.49.48,2.38,0,.98-.15,1.83-.45,2.54-.3.71-.73,1.29-1.29,1.76-.56.46-1.2.79-1.96,1.02-.74.22-1.57.33-2.47.33l7.17,11.18h-1.51ZM818.71,282.87c-.25-.54-.59-.97-1.03-1.31-.44-.35-.95-.6-1.54-.79-.58-.18-1.2-.27-1.87-.27h-3.88v8.61h4.22c1.34,0,2.41-.37,3.24-1.13.83-.76,1.24-1.83,1.24-3.26,0-.71-.13-1.33-.38-1.86Z"/>
        <path class="cls-1" d="M830.59,301.58v-22.36h1.25v22.36h-1.25Z"/>
        <path class="cls-1" d="M842.11,282.6v18.98h-1.25v-22.51l16.69,19.57v-19.42h1.28v22.74l-16.72-19.36Z"/>
        <path class="cls-1" d="M888.72,298.48c-2.15,2.27-5,3.41-8.54,3.41s-6.14-1.07-8.27-3.2c-2.15-2.15-3.23-4.92-3.23-8.3s1.08-6.08,3.23-8.24c2.17-2.17,4.92-3.26,8.27-3.26,4,0,7.16,1.54,9.45,4.6l-1.03.79c-2.01-2.75-4.82-4.13-8.42-4.13-2.95,0-5.39.97-7.34,2.91-1.94,1.94-2.91,4.38-2.91,7.33s.96,5.41,2.88,7.33c1.96,1.92,4.42,2.88,7.36,2.88,3.15,0,5.69-1.05,7.6-3.16,1.47-1.58,2.29-3.38,2.51-5.38h-7.4v-1.28h8.8c0,3.04-.99,5.62-2.98,7.7Z"/>
        <path class="cls-1" d="M930.57,298.19c-1.88,2.25-4.33,3.38-7.36,3.38h-7.46v-22.36h7.46c3.01,0,5.45,1.12,7.33,3.38,1.77,2.11,2.67,4.69,2.67,7.77s-.88,5.7-2.63,7.83ZM929.63,283.48c-1.63-2.01-3.77-3.01-6.42-3.01h-6.2v19.83h6.2c2.3,0,4.29-.86,5.99-2.57,1.81-1.84,2.72-4.29,2.72-7.36,0-2.73-.76-5.03-2.29-6.89Z"/>
        <path class="cls-1" d="M952.65,301.58l-7.11-11.18h-2.42v11.18h-1.25v-22.36h5.17c.84,0,1.63.12,2.38.36.75.24,1.4.6,1.95,1.07.54.46.97,1.05,1.29,1.73.32.69.48,1.49.48,2.38,0,.98-.15,1.83-.45,2.54-.3.71-.73,1.29-1.28,1.76-.55.46-1.21.79-1.95,1.02-.76.22-1.58.33-2.48.33l7.17,11.18h-1.5ZM951.46,282.87c-.25-.54-.59-.97-1.03-1.31-.44-.35-.96-.6-1.54-.79-.58-.18-1.21-.27-1.88-.27h-3.88v8.61h4.23c1.34,0,2.41-.37,3.25-1.13.82-.76,1.23-1.83,1.23-3.26,0-.71-.12-1.33-.38-1.86Z"/>
        <path class="cls-1" d="M963.15,301.58v-22.36h10.74v1.28h-9.46v8.14h9.46v1.38h-9.46v10.27h9.46v1.28h-10.74Z"/>
        <path class="cls-1" d="M998.57,301.58l-2.56-6.7h-10.18l-2.6,6.7h-1.25l8.93-23.08,8.96,23.08h-1.29ZM990.9,281.76l-4.57,11.83h9.14l-4.57-11.83Z"/>
        <path class="cls-1" d="M1033.37,301.58l-4.75-18.79-7.36,19.36-7.36-19.39-4.79,18.82h-1.28l5.82-23.02,7.61,19.95,7.61-19.98,5.83,23.05h-1.32Z"/>
        <path class="cls-1" d="M1050.92,301.39c-.82.29-1.78.44-2.89.44-3.42,0-5.62-1.62-6.6-4.85l1.29-.44c.73,2.68,2.5,4.01,5.32,4.01,1.61,0,2.87-.4,3.79-1.19.94-.82,1.41-2,1.41-3.57,0-1.48-.55-2.71-1.66-3.69-.29-.27-.74-.57-1.34-.91-.61-.34-1.38-.71-2.32-1.13-1.77-.79-2.98-1.48-3.63-2.06-1.09-.94-1.63-2.18-1.63-3.73s.56-2.79,1.66-3.73c1.09-.96,2.43-1.44,4.01-1.44,2.63,0,4.49.98,5.57,2.94l-1.22.54c-.42-.69-.92-1.2-1.5-1.54-.73-.46-1.68-.69-2.85-.69-1.23,0-2.26.35-3.07,1.04-.88.73-1.31,1.69-1.31,2.88,0,1.06.45,2,1.38,2.79.52.42,1.55.99,3.13,1.7.98.43,1.83.87,2.54,1.3.71.43,1.28.86,1.72,1.3,1.21,1.19,1.82,2.67,1.82,4.44,0,2.84-1.2,4.71-3.6,5.6Z"/>
      </g>
      <path class="cls-1" d="M1071.22,197.89c5.73,0,10.3,4.66,10.3,10.48s-4.57,10.53-10.34,10.53-10.39-4.61-10.39-10.53,4.66-10.48,10.39-10.48h.05ZM1071.17,199.52c-4.61,0-8.39,3.96-8.39,8.85s3.77,8.9,8.43,8.9c4.66.05,8.39-3.91,8.39-8.85s-3.73-8.9-8.39-8.9h-.05ZM1069.22,214.47h-1.86v-11.69c.98-.14,1.91-.28,3.31-.28,1.77,0,2.93.37,3.63.88.7.51,1.07,1.3,1.07,2.42,0,1.54-1.02,2.47-2.28,2.84v.09c1.02.19,1.72,1.12,1.96,2.84.28,1.82.56,2.52.75,2.89h-1.96c-.28-.37-.56-1.44-.79-2.98-.28-1.49-1.02-2.05-2.52-2.05h-1.3v5.03ZM1069.22,208h1.35c1.54,0,2.84-.56,2.84-2,0-1.03-.75-2.05-2.84-2.05-.61,0-1.02.05-1.35.09v3.96Z"/>
    </g>
  </g>
</svg>